<svg xmlns="http://www.w3.org/2000/svg" width="45" height="45" viewBox="0 0 45 45">
  <g id="Group_4522" data-name="Group 4522" transform="translate(-173 -773)">
    <rect id="Rectangle_932" data-name="Rectangle 932" width="45" height="45" rx="9" transform="translate(173 773)" fill="#fff"/>
    <path id="Icon_awesome-arrow-up" data-name="Icon awesome-arrow-up" d="M2.278,18.808.851,17.38a1.537,1.537,0,0,1,0-2.18L13.345,2.7a1.537,1.537,0,0,1,2.18,0L28.019,15.194a1.537,1.537,0,0,1,0,2.18L26.591,18.8a1.545,1.545,0,0,1-2.206-.026L17.01,11.034V29.514a1.54,1.54,0,0,1-1.543,1.543H13.409a1.54,1.54,0,0,1-1.543-1.543V11.034L4.484,18.782a1.534,1.534,0,0,1-2.206.026Z" transform="translate(178.753 809.302) rotate(-90)" fill="#00386c"/>
  </g>
</svg>
