<svg id="Group_4959" data-name="Group 4959" xmlns="http://www.w3.org/2000/svg" width="30.637" height="28.626" viewBox="0 0 30.637 28.626">
  <path id="Icon_simple-hipchat" data-name="Icon simple-hipchat" d="M25.534,24.249a12.482,12.482,0,0,0,5.1-9.853c0-7.3-6.859-13.215-15.314-13.215S0,7.1,0,14.4s6.856,13.22,15.316,13.22a17.567,17.567,0,0,0,3.222-.291l.334-.057a15.943,15.943,0,0,0,8.027,2.54.822.822,0,0,0,.7-1.409C26.776,27.382,25.325,24.408,25.534,24.249Z" transform="translate(0 -1.181)" fill="#00386c"/>
  <circle id="Ellipse_209" data-name="Ellipse 209" cx="2" cy="2" r="2" transform="translate(5 11.991)" fill="#fff"/>
  <ellipse id="Ellipse_210" data-name="Ellipse 210" cx="2.5" cy="2" rx="2.5" ry="2" transform="translate(11 11.991)" fill="#fff"/>
  <circle id="Ellipse_211" data-name="Ellipse 211" cx="2" cy="2" r="2" transform="translate(19 11.991)" fill="#fff"/>
</svg>
