<svg xmlns="http://www.w3.org/2000/svg" width="96" height="83" viewBox="0 0 96 83">
  <g id="Group_4510" data-name="Group 4510" transform="translate(-4778 -2378)">
    <rect id="Rectangle_917" data-name="Rectangle 917" width="96" height="83" rx="3" transform="translate(4778 2378)" fill="none"/>
    <g id="international-delivery" transform="translate(4784.498 2377.996)">
      <path id="Path_3490" data-name="Path 3490" d="M50.018,32h16.86a40.58,40.58,0,0,1-1.141,9.546,29.982,29.982,0,0,1-9.3,7.237h0a2.592,2.592,0,0,0-2.737-.454l-2.127.908q-.447-1.77-.973-3.93l5.914-2.892c1.919-.947,6.212-4.993,5.279-6.913-.143-.3-.428-.882-.571-1.167-.947-1.919-6.783-1.012-8.7-.078L49.94,35.515C49.992,34.347,50.018,33.18,50.018,32Z" transform="translate(14.83 9.501)" fill="#dfdee2"/>
      <path id="Path_3491" data-name="Path 3491" d="M68.873,46.237A40.16,40.16,0,0,1,57.615,65.731c-.013-.065-.013-.091-1.647-6.705l2.879-1.219a2.6,2.6,0,0,0,1.6-2.4,2.463,2.463,0,0,0-.208-1,2.551,2.551,0,0,0-.661-.934A29.982,29.982,0,0,0,68.873,46.237Zm-19.9,14.876,4.1,8.378a40.272,40.272,0,0,1-13.7,6.251C43.258,72.54,46.565,67.456,48.977,61.114ZM70.014,36.692H53.154A72.166,72.166,0,0,0,50.3,16.2c8.184,2.438,14.733,6.29,18.572,10.946A39.911,39.911,0,0,1,70.014,36.692Z" transform="translate(11.694 4.809)" fill="#f2f4f4"/>
      <path id="Path_3492" data-name="Path 3492" d="M49.639,62.227l1.53,3.139c-2.412,6.342-5.72,11.426-9.6,14.63l-.013.013A40.69,40.69,0,0,1,32,81.15V65.963l3.657-1.79h.6A71.511,71.511,0,0,0,49.639,62.227ZM71.064,31.4c-3.839-4.656-10.389-8.508-18.572-10.946C50.054,12.269,46.2,5.719,41.546,1.88A40.264,40.264,0,0,1,71.064,31.4Z" transform="translate(9.503 0.557)" fill="#fff"/>
      <path id="Path_3493" data-name="Path 3493" d="M47.24,63.982A31.513,31.513,0,0,1,39.38,74.6a40.272,40.272,0,0,0,13.7-6.251l-3.471-7.1Q48.475,62.655,47.24,63.982ZM59.574,52.333a2.551,2.551,0,0,1,.661.934,2.463,2.463,0,0,1,.208,1,2.6,2.6,0,0,1-1.6,2.4l-2.879,1.219c1.634,6.614,1.634,6.64,1.647,6.705A40.16,40.16,0,0,0,68.873,45.1,29.982,29.982,0,0,1,59.574,52.333ZM68.873,26a28.368,28.368,0,0,0-7.116-5.96,63.99,63.99,0,0,1-.739,15.505h9A39.911,39.911,0,0,0,68.873,26Z" transform="translate(11.694 5.951)" fill="#fff"/>
      <path id="Path_3494" data-name="Path 3494" d="M62.9,38.068c-.07.406-.147.809-.224,1.213,1.652-.043,3.13.237,3.567,1.122.143.285.428.869.571,1.167.934,1.919-3.359,5.966-5.279,6.913l-1.742.852a55.81,55.81,0,0,1-2.578,5.705l1.507-.643a2.592,2.592,0,0,1,2.737.454h0a29.982,29.982,0,0,0,9.3-7.237,40.648,40.648,0,0,0,1.14-9.546ZM33.048,78.232a40.758,40.758,0,0,0,8.2-1.1l.013-.013A31.5,31.5,0,0,0,49.12,66.5,52.536,52.536,0,0,1,33.048,78.232Zm37.705-49.71a40.1,40.1,0,0,0-8.831-16.955,67.383,67.383,0,0,1,1.716,11A28.384,28.384,0,0,1,70.753,28.522Z" transform="translate(9.814 3.434)" fill="#fff"/>
      <path id="Path_3495" data-name="Path 3495" d="M54.622,40.687h0l-4.172,2.04q.37,1.537.7,2.879l.01-.005c.087.359.174.724.262,1.056l2.036-.869h0l-1.416.6A55.539,55.539,0,0,0,54.622,40.687Z" transform="translate(14.981 12.081)" fill="rgba(0,56,108,0.53)"/>
      <path id="Path_3496" data-name="Path 3496" d="M57.3,44.023c1.919-.947,6.212-4.993,5.279-6.913-.143-.3-.428-.882-.571-1.167a1.645,1.645,0,0,0-.61-.623C61.187,37.4,57.685,40.6,56,41.429l-1.742.852h0a55.811,55.811,0,0,1-2.578,5.705l1.416-.6c-.089-.377-.189-.774-.288-1.167Z" transform="translate(15.346 10.487)" fill="rgba(0,56,108,0.53)"/>
      <path id="Path_3497" data-name="Path 3497" d="M56.725,46.025a2.463,2.463,0,0,1,.208,1,2.6,2.6,0,0,1-1.6,2.4l-2.879,1.219c-.35-1.388-.752-3.061-1.258-5.1l2.127-.908a2.592,2.592,0,0,1,2.737.454A2.551,2.551,0,0,1,56.725,46.025Z" transform="translate(15.204 13.193)" fill="#dad4d4"/>
      <path id="Path_3498" data-name="Path 3498" d="M56.725,46.025a2.463,2.463,0,0,1,.208,1,2.6,2.6,0,0,1-1.6,2.4l-2.879,1.219c-.35-1.388-.752-3.061-1.258-5.1l2.127-.908a2.592,2.592,0,0,1,2.737.454A2.551,2.551,0,0,1,56.725,46.025Z" transform="translate(15.204 13.193)" fill="#f5f5f5"/>
      <path id="Path_3499" data-name="Path 3499" d="M56.8,46.947a2.6,2.6,0,0,1-1.6,2.4L52.33,50.565q-.311-1.245-.7-2.84l2.283-.973a2.6,2.6,0,0,0,1.569-2.062,2.653,2.653,0,0,1,.454.324,2.551,2.551,0,0,1,.661.934A2.463,2.463,0,0,1,56.8,46.947Z" transform="translate(15.332 13.27)" fill="rgba(0,56,108,0.53)"/>
      <path id="Path_3500" data-name="Path 3500" d="M49.38,30.245a2.618,2.618,0,0,1-.156,2.685,2.706,2.706,0,0,1-.921.83l-2.218,1.167L42.83,30.79l3.035-1.621a2.516,2.516,0,0,1,1.206-.3A2.626,2.626,0,0,1,49.38,30.245Z" transform="translate(12.719 8.572)" fill="#f5f5f5"/>
      <path id="Path_3501" data-name="Path 3501" d="M48.817,32.929a2.706,2.706,0,0,1-.921.83l-2.218,1.167L44.2,33.046l1.1-.584a2.706,2.706,0,0,0,.921-.83,2.618,2.618,0,0,0,.156-2.685c-.013-.026-.026-.039-.039-.065a2.71,2.71,0,0,1,.324-.013,2.589,2.589,0,0,1,2.153,4.059Z" transform="translate(13.125 8.572)" fill="rgba(0,56,108,0.53)"/>
      <path id="Path_3502" data-name="Path 3502" d="M25.81,60.274l.765,10.3c-4.41-3.891-8.041-10.233-10.376-18.08,1.634.493,3.32.921,5.071,1.3h.013l2.049,1.855a5.8,5.8,0,0,0-1.025,2.633,2,2,0,0,0,.571,1.167,6.056,6.056,0,0,0,2.931.817Zm10.881-3.255V72.206a40.394,40.394,0,0,1-7.561-.713l3.216-3.152a1.268,1.268,0,0,0,.376-.752l1.3-9.26ZM57.132,32h2.905c0,1.18-.026,2.347-.078,3.515v.013l-3.45,1.686L53.993,34l2.218-1.167A2.706,2.706,0,0,0,57.132,32Z" transform="translate(4.811 9.501)" fill="#f2f4f4"/>
      <path id="Path_3503" data-name="Path 3503" d="M50.217,32a2.546,2.546,0,0,1-.441,1.3,2.706,2.706,0,0,1-.921.83l-2.529,1.128L45.34,34l2.218-1.167a2.706,2.706,0,0,0,.921-.83h1.738Z" transform="translate(13.464 9.501)" fill="rgba(0,56,108,0.53)"/>
      <path id="Path_3504" data-name="Path 3504" d="M39.237,32l4.487,9.169L32,46.9V32Z" transform="translate(9.503 9.501)" fill="#f2f4f4"/>
      <path id="Path_3505" data-name="Path 3505" d="M17.86,41.206A72.166,72.166,0,0,0,20.714,61.7c-8.158-2.425-14.72-6.264-18.559-10.933A39.372,39.372,0,0,1,1,41.206ZM50.751,2.141C55.407,5.98,59.259,12.53,61.7,20.714A71.773,71.773,0,0,0,41.206,17.86V1A39.91,39.91,0,0,1,50.751,2.141ZM41.206,17.86V41.206H17.86a71.707,71.707,0,0,1,2.853-20.492A71.773,71.773,0,0,1,41.206,17.86Z" transform="translate(0.297 0.296)" fill="#f2f4f4"/>
      <path id="Path_3506" data-name="Path 3506" d="M31.4,1.88C26.74,5.719,22.888,12.269,20.449,20.452,12.279,22.878,5.729,26.73,1.89,31.373A40.256,40.256,0,0,1,31.4,1.88ZM56.647,58.272l1.932,3.956A71.512,71.512,0,0,1,45.2,64.173h-.6Z" transform="translate(0.561 0.557)" fill="#f2f4f4"/>
      <path id="Path_3507" data-name="Path 3507" d="M30.825,68.383l.026.363A40.259,40.259,0,0,1,1.89,39.37c3.839,4.669,10.4,8.508,18.559,10.933C22.784,58.15,26.415,64.492,30.825,68.383Z" transform="translate(0.561 11.69)" fill="#dfdee2"/>
      <path id="Path_3508" data-name="Path 3508" d="M41.206,52.247v.013l-6.978,3.411-7.522-4.293a1.315,1.315,0,0,0-.83-.156l-4.915.648a1.307,1.307,0,0,0-.7,2.257l5.525,5.006c-1.751-.376-3.437-.8-5.071-1.3A72.166,72.166,0,0,1,17.86,37.345H41.206ZM20.714,16.853A71.707,71.707,0,0,0,17.86,37.345H1a40.69,40.69,0,0,1,1.141-9.559l.013-.013C5.993,23.131,12.543,19.279,20.714,16.853ZM64.551,37.345H61.646a2.589,2.589,0,0,0-2.153-4.059,2.516,2.516,0,0,0-1.206.3l-3.035,1.621-3.722-4.747a7.814,7.814,0,0,0-4.656-2.84l-3.515-.661,5.084,10.389H41.206V14A71.773,71.773,0,0,1,61.7,16.853,72.166,72.166,0,0,1,64.551,37.345Z" transform="translate(0.297 4.156)" fill="#fff"/>
      <path id="Path_3509" data-name="Path 3509" d="M47.76,32.576a2.59,2.59,0,0,0,.233-2.516,2.518,2.518,0,0,1,1.5,2.516Z" transform="translate(14.183 8.925)" fill="#a29292"/>
      <path id="Path_3510" data-name="Path 3510" d="M36.692,1V17.86A71.773,71.773,0,0,0,16.2,20.714C18.638,12.53,22.49,5.98,27.146,2.141A39.91,39.91,0,0,1,36.692,1Z" transform="translate(4.811 0.296)" fill="#fff"/>
      <path id="Path_3511" data-name="Path 3511" d="M29.916,47.151l-2.127,1.038a13.327,13.327,0,0,0-4.254,4.28l-2.049-1.855h-.013l-5.525-5.006a1.307,1.307,0,0,1,.7-2.257l4.915-.648a1.315,1.315,0,0,1,.83.156Zm4.306,8-1.3,9.26a1.268,1.268,0,0,1-.376.752l-3.216,3.152-.324.324a1.3,1.3,0,0,1-2.2-.817V67.76l-.026-.363-.765-10.3v-.013a12.836,12.836,0,0,0,5.771-.739Z" transform="translate(4.609 12.676)" fill="#fff"/>
      <path id="Path_3512" data-name="Path 3512" d="M31.82,52.3l-1.3,9.26a1.268,1.268,0,0,1-.376.752l-2.4,2.36a1.456,1.456,0,0,0,.182-.519L29,56.485a.926.926,0,0,0-1.259-.99A24.043,24.043,0,0,1,23.8,56.8l-.195-2.555v-.013a12.836,12.836,0,0,0,5.771-.739Z" transform="translate(7.011 15.53)" fill="#fff"/>
      <path id="Path_3513" data-name="Path 3513" d="M70.415,35.226c.934,1.919-3.359,5.966-5.279,6.913L30.183,59.246a12.836,12.836,0,0,1-5.771.739,6.056,6.056,0,0,1-2.931-.817A2,2,0,0,1,20.91,58a5.8,5.8,0,0,1,1.025-2.633,13.327,13.327,0,0,1,4.254-4.28L61.142,33.981c1.919-.934,7.756-1.842,8.7.078C69.987,34.344,70.272,34.928,70.415,35.226Z" transform="translate(6.209 9.777)" fill="#fff"/>
      <path id="Path_3514" data-name="Path 3514" d="M33.728,51.29l-.22.108v0L31.057,52.6l-1.3,9.26a1.268,1.268,0,0,1-.376.752l-3.2,3.139v.013c1.115.22,2.244.376,3.4.493l2.4-2.347a1.268,1.268,0,0,0,.376-.752l.821-8.367.554-.271Z" transform="translate(7.774 15.23)" fill="#fff"/>
      <path id="Path_3515" data-name="Path 3515" d="M43.893,49.29,32,55.113V51.884l3.657-1.79h.6A71.75,71.75,0,0,0,43.893,49.29Z" transform="translate(9.503 14.636)" fill="rgba(0,56,108,0.53)"/>
      <path id="Path_3516" data-name="Path 3516" d="M48.14,47.967l-5.084,2.49a71.753,71.753,0,0,1-7.639.8h-.6l12.049-5.9Z" transform="translate(10.34 13.469)" fill="#7895b1"/>
      <path id="Path_3517" data-name="Path 3517" d="M65.136,42.061,30.183,59.168a12.836,12.836,0,0,1-5.771.739,6.056,6.056,0,0,1-2.931-.817,2,2,0,0,1-.571-1.167,5.119,5.119,0,0,1,.726-2.127,9.853,9.853,0,0,0,1.479.22,12.836,12.836,0,0,0,5.771-.739L63.839,38.17a14.046,14.046,0,0,0,5.032-4.98,1.782,1.782,0,0,1,.973.791c.143.285.428.869.571,1.167C71.349,37.068,67.056,41.114,65.136,42.061Z" transform="translate(6.209 9.855)" fill="#fff"/>
      <path id="Path_3518" data-name="Path 3518" d="M53.305,46.19c.506,2.036.908,3.709,1.258,5.1,1.634,6.614,1.634,6.64,1.647,6.705a7.733,7.733,0,0,1-.674,5.162l-1.621,3.178-2.244-4.578-4.1-8.378-1.53-3.139L44.11,46.281l8.223-4.021Q52.858,44.419,53.305,46.19Z" transform="translate(13.099 12.548)" fill="#fff"/>
      <path id="Path_3519" data-name="Path 3519" d="M59.031,47.025a2.582,2.582,0,0,0-2.737-1.569,1.8,1.8,0,0,1,.143.272,2.463,2.463,0,0,1,.208,1,2.6,2.6,0,0,1-1.6,2.4l-.817.35-2.062.869c1.634,6.614,1.634,6.64,1.647,6.705.636-.6,1.232-1.219,1.829-1.868-.22-.895-.519-2.049-.882-3.541l2.879-1.219a2.6,2.6,0,0,0,1.6-2.4A2.463,2.463,0,0,0,59.031,47.025Z" transform="translate(15.492 13.49)" fill="rgba(0,56,108,0.53)"/>
      <path id="Path_3520" data-name="Path 3520" d="M54.182,63.154l-1.621,3.178L51.29,63.738l.3-.584a7.733,7.733,0,0,0,.674-5.162c-.013-.065-.013-.091-1.647-6.705-.35-1.388-.752-3.061-1.258-5.1-.22-.869-.454-1.79-.687-2.8l2.309-1.128q.525,2.159.973,3.93c.506,2.036.908,3.709,1.258,5.1,1.634,6.614,1.634,6.64,1.647,6.705A7.733,7.733,0,0,1,54.182,63.154Z" transform="translate(14.453 12.548)" fill="#fff"/>
      <path id="Path_3521" data-name="Path 3521" d="M48.808,36.376l2.516,3.216-8.093,3.956-4.487-9.169L33.66,23.99l3.515.661a7.814,7.814,0,0,1,4.656,2.84l3.722,4.747Z" transform="translate(9.995 7.123)" fill="#fff"/>
      <path id="Path_3522" data-name="Path 3522" d="M83.005,41.5A41.46,41.46,0,0,0,51.358,1.178a41.97,41.97,0,0,0-19.707,0A41.309,41.309,0,0,0,1.227,31.48a1.316,1.316,0,0,0-.049.158A42.115,42.115,0,0,0,0,41.5a40.766,40.766,0,0,0,1.191,9.865A41.371,41.371,0,0,0,30.364,81.477a2.574,2.574,0,0,0,1.453,1.354,2.62,2.62,0,0,0,.9.162,2.542,2.542,0,0,0,1.639-.615,41.564,41.564,0,0,0,17.006-.552,1.194,1.194,0,0,0,.147-.045,41.341,41.341,0,0,0,12.75-5.574l1.587,3.245A1.3,1.3,0,0,0,67,80.178h.01a1.3,1.3,0,0,0,1.156-.708l1.621-3.175A9.046,9.046,0,0,0,70.674,71,41.355,41.355,0,0,0,81.831,51.353,42.269,42.269,0,0,0,83.005,41.5ZM50.446,79.374a39.335,39.335,0,0,1-7.647,1V67.33l2.665-1.3h.359a73.434,73.434,0,0,0,12.6-1.756l.829,1.7C56.966,71.792,53.934,76.414,50.446,79.374Zm-17.606.951-.131.176c0-.03,0-.128,0-.158l-.026-.348v-.008l-.66-8.884a12.811,12.811,0,0,0,4.943-.916l.245-.121-.958,6.848-3.226,3.162-.1.131A1.3,1.3,0,0,0,32.84,80.324ZM3.629,32.563c3.318-3.908,8.751-7.253,15.483-9.569l-.008.027a1.3,1.3,0,0,0,.933,1.58,1.329,1.329,0,0,0,.324.04,1.3,1.3,0,0,0,1.255-.974c.14-.542.294-1.073.447-1.6a70.76,70.76,0,0,1,18.142-2.589V40.2H19.482a74.371,74.371,0,0,1,1.044-11.451,1.3,1.3,0,0,0-2.555-.444A76.872,76.872,0,0,0,16.889,40.2H2.632A39.542,39.542,0,0,1,3.629,32.563ZM32.572,3.632a38.659,38.659,0,0,1,7.634-1V16.881A74.573,74.573,0,0,0,23,19.111C25.32,12.376,28.667,6.944,32.572,3.632ZM60.009,19.111A74.6,74.6,0,0,0,42.8,16.881V2.636a38.684,38.684,0,0,1,7.635,1C54.339,6.945,57.685,12.376,60.009,19.111ZM61.694,45.09l-.914-1.165.866-.457a4.026,4.026,0,0,0,1.37-1.239,3.842,3.842,0,0,0,.527-1.224c0,.165.009.329.009.5,0,.91-.029,1.809-.06,2.709ZM27.936,63.207l-.97-.878c-.012-.01-.027-.013-.039-.023l-5.5-4.992,4.932-.652,5.4,3.079A13.286,13.286,0,0,0,27.936,63.207Zm6.633-4.847-6.915-3.945A2.584,2.584,0,0,0,26,54.095l-4.93.65a2.592,2.592,0,0,0-.423.122A74.478,74.478,0,0,1,19.475,42.8H40.206V55.608ZM42.8,42.8H47.93l3.561,7.279L42.8,54.326ZM60.94,22.063a70.694,70.694,0,0,1,2.567,16.868,3.859,3.859,0,0,0-.266-.728,3.906,3.906,0,0,0-3.451-2.057,3.822,3.822,0,0,0-1.817.451L55.9,37.7,52.85,33.817A9.122,9.122,0,0,0,47.411,30.5L43.9,29.838a1.287,1.287,0,0,0-1.1.315V19.474A70.756,70.756,0,0,1,60.94,22.063Zm-.523,19.121-1.266.667-1.628-2.074,1.667-.89a1.356,1.356,0,0,1,1.761.537,1.321,1.321,0,0,1-.077,1.34A1.378,1.378,0,0,1,60.417,41.184ZM42.8,32.315,46.661,40.2H42.8ZM53.822,48.937,45.958,32.866l.961.182a6.515,6.515,0,0,1,3.887,2.368l8.5,10.839ZM3.644,50.445A37.845,37.845,0,0,1,2.633,42.8H16.884a74.864,74.864,0,0,0,2.235,17.211C12.376,57.69,6.946,54.346,3.644,50.445ZM25.21,64.251c.013.012.029.014.042.025l1.255,1.136a5.807,5.807,0,0,0-.685,2.364A3.213,3.213,0,0,0,26.933,70a5.971,5.971,0,0,0,2.472.922l.42,5.648a42.044,42.044,0,0,1-7.572-14.947c-.006-.022-.012-.045-.018-.067ZM38.042,78.79a2.555,2.555,0,0,0,.776-1.52l1.2-8.579.187-.091V80.381c-1.171-.039-2.338-.135-3.5-.278Zm19.21-16.916c-1.72.379-3.469.7-5.251.953l4.613-2.258Zm-.59-4.216c-.008,0-.016,0-.023.006s-.012.012-.019.016l-20.8,10.178a11.762,11.762,0,0,1-5.1.612,5.5,5.5,0,0,1-2.189-.521,1.407,1.407,0,0,1-.106-.223,4.82,4.82,0,0,1,.817-1.884,12.09,12.09,0,0,1,3.726-3.81l9.106-4.449a1.345,1.345,0,0,0,.147-.084L65.339,46.2a1.367,1.367,0,0,0,.148-.084l2.432-1.184c1.926-.939,6.425-1.265,6.974-.51.14.28.42.852.562,1.147.252.9-2.769,4.246-4.679,5.189ZM70.741,59.74a1.159,1.159,0,0,1,.1.476,1.3,1.3,0,0,1-.8,1.206l-1.481.626c-.091-.371-.184-.748-.284-1.154l-.344-1.4,1.11-.473a1.3,1.3,0,0,1,1.384.244A1.241,1.241,0,0,1,70.741,59.74ZM69.187,64.6l1.853-.785a3.882,3.882,0,0,0,2.394-3.6,3.729,3.729,0,0,0-.3-1.48,34.913,34.913,0,0,0,4.638-3.144,38.744,38.744,0,0,1-7.753,12.364C69.818,67.155,69.55,66.068,69.187,64.6ZM79.368,50.449a28.287,28.287,0,0,1-8.042,6.323,3.912,3.912,0,0,0-3.3-.135l-.728.311c-.114-.458-.232-.942-.353-1.432l4.979-2.437c1.667-.822,7.428-5.446,5.877-8.634-.145-.3-.436-.9-.578-1.183a2.581,2.581,0,0,0-.306-.463h3.462A39.674,39.674,0,0,1,79.368,50.449ZM68.739,40.2a1.3,1.3,0,0,0-1.3,1.3,1.26,1.26,0,0,0,.259.738,7.52,7.52,0,0,0-.917.353l-.669.327c.006-.473.03-.942.03-1.418a75.315,75.315,0,0,0-2.257-18.508c6.738,2.324,12.169,5.67,15.484,9.574a38.587,38.587,0,0,1,1,7.636ZM77.8,27.464a44.9,44.9,0,0,0-14.775-7.482A44.93,44.93,0,0,0,55.539,5.209,38.656,38.656,0,0,1,77.8,27.464ZM27.464,5.209a44.922,44.922,0,0,0-7.481,14.772A44.834,44.834,0,0,0,5.22,27.445,38.656,38.656,0,0,1,27.464,5.209ZM5.223,55.554A44.834,44.834,0,0,0,19.982,63.02a44.281,44.281,0,0,0,7.45,14.755A38.756,38.756,0,0,1,5.223,55.554ZM55.558,77.78a39.492,39.492,0,0,0,5.214-8.714l2.341,4.787A38.867,38.867,0,0,1,55.558,77.78Zm11.922-2.667-.442.868L58.945,59.429l5.611-2.746c.2.829.4,1.625.585,2.353,0,.013.006.027.01.04l.6,2.438c.24.98.455,1.856.651,2.633,1.064,4.3,1.6,6.477,1.638,6.666A6.47,6.47,0,0,1,67.479,75.113Z" transform="translate(0 0)" fill="#00386c"/>
    </g>
  </g>
</svg>
