<svg xmlns="http://www.w3.org/2000/svg" width="96.185" height="83" viewBox="0 0 96.185 83">
  <g id="Group_4509" data-name="Group 4509" transform="translate(-4567.908 -2241)">
    <rect id="Rectangle_916" data-name="Rectangle 916" width="96" height="83" transform="translate(4568 2241)" fill="none"/>
    <g id="airplane" transform="translate(4564.85 2234)">
      <path id="Path_3485" data-name="Path 3485" d="M99.242,36.88a9.97,9.97,0,0,0-9.96-9.96H62.591q-.13-2.466-.448-4.917a.863.863,0,0,0-.08-.611c-.242-1.735-.619-7.752-3.126-7.752H52.762V10.32h11.62a1.661,1.661,0,0,0,0-3.32H37.822a1.661,1.661,0,0,0,0,3.32h11.62v3.32H43.267c-1.552,0-1.848,1.843-2.17,3a20.321,20.321,0,0,0-1,5.081c-.217,1.577-.377,3.293-.483,5.2H12.922c-8.956,0-13.315,11.413-6.6,17.4a9.628,9.628,0,0,0,9.326,9.162h24.93c.538,5.908,1.255,11.578,2.1,16.6h-7.94c-6.944,0-6.935,13.28,0,13.28H45.754C46.544,85.7,47.991,90,51.1,90s4.56-4.3,5.35-6.64H67.473c6.934,0,6.944-13.28,0-13.28H59.535c.845-5.023,1.562-10.7,2.1-16.6H86.56a9.626,9.626,0,0,0,9.324-9.165A10.006,10.006,0,0,0,99.242,36.88ZM44.464,16.96H57.74a29.152,29.152,0,0,1,.785,3.32H43.68A28.813,28.813,0,0,1,44.464,16.96ZM43.207,23.6H59c.111,1.036.2,2.138.272,3.32H42.935c.07-1.182.161-2.284.272-3.32ZM15.644,50.16a6.02,6.02,0,0,1-5.408-3.682,10.054,10.054,0,0,0,2.686.362H40.028c.075,1.1.161,2.2.249,3.32ZM33.817,79.565c-1.129-1.2-1.67-6.165.918-6.165H49.442v6.64H34.735a1.29,1.29,0,0,1-.918-.475C33.207,78.918,34.024,79.791,33.817,79.565ZM51.1,86.634c-.242-.184-.933-.886-1.839-3.274h3.68c-.908,2.387-1.6,3.088-1.841,3.274C50.86,86.448,51.344,86.448,51.1,86.634Zm18.26-9.914c0,1.038-.475,3.32-1.892,3.32H52.762V73.4H67.471C68.363,73.4,69.362,74.819,69.362,76.72Zm-16.6-6.64V65.1a1.661,1.661,0,0,0-3.32,0v4.98h-3.4C45.1,64.655,44.326,58.412,43.765,51.9a.833.833,0,0,0-.051-.546l-.06-.652-.01-.115c-.1-1.258-.184-2.5-.271-3.75h15.46c-.086,1.243-.169,2.488-.269,3.73l-.1,1.1v.013c-.563,6.584-1.351,12.91-2.3,18.4h-3.4Zm33.8-19.92H61.925c.09-1.111.174-2.219.249-3.32H89.282a10.269,10.269,0,0,0,2.686-.362A6.02,6.02,0,0,1,86.56,50.16Zm6.7-7.963a6.515,6.515,0,0,1-3.977,1.323H12.922a6.64,6.64,0,1,1,0-13.28h48.09a.11.11,0,0,0,.033,0H89.282c6.24,0,8.969,8.2,3.977,11.957C92.119,43.064,94.928,40.94,93.259,42.2Z" transform="translate(0 0)" fill="#fff"/>
      <path id="Path_3486" data-name="Path 3486" d="M11.915,22c-6.421,0-6.421,9.96,0,9.96S18.336,22,11.915,22Zm0,6.64a1.661,1.661,0,0,1,0-3.32A1.661,1.661,0,0,1,11.915,28.64ZM84.955,22c-6.421,0-6.421,9.96,0,9.96S91.376,22,84.955,22Zm0,6.64a1.661,1.661,0,0,1,0-3.32A1.661,1.661,0,0,1,84.955,28.64Z" transform="translate(2.667 9.9)" fill="#fff"/>
    </g>
  </g>
</svg>
