<svg xmlns="http://www.w3.org/2000/svg" width="96" height="83" viewBox="0 0 96 83">
  <g id="Group_4511" data-name="Group 4511" transform="translate(-4485 -2378)">
    <g id="domestic-worker" transform="translate(4486 2372.057)">
      <path id="Path_3487" data-name="Path 3487" d="M34.415,41.925c7.912,0,13.811-5.944,13.811-12.66S42.328,16.6,34.415,16.6,20.6,22.548,20.6,29.264,26.5,41.925,34.415,41.925Zm0,4.6c10.171,0,18.415-7.73,18.415-17.264S44.586,12,34.415,12,16,19.73,16,29.264,24.245,46.529,34.415,46.529Z" transform="translate(13.019 7.886)" fill="#fff" fill-rule="evenodd"/>
      <path id="Path_3488" data-name="Path 3488" d="M47.434,5.943,58.073,9.59a11.509,11.509,0,0,1,7.777,10.887V36h-4.6V20.478a6.906,6.906,0,0,0-4.666-6.533L47.434,10.81l-9.146,3.136a6.906,6.906,0,0,0-4.666,6.533V36h-4.6V20.478A11.509,11.509,0,0,1,36.8,9.59Zm-9.208,71.49a9.208,9.208,0,0,0,9.208-9.208,9.208,9.208,0,1,0,14.175-7.754c13.112,2.452,27.259,8.036,27.259,16.962v11.51H6V77.433c0-8.926,14.147-14.509,27.259-16.962a9.208,9.208,0,0,0,4.967,16.962ZM24.415,88.943V75.131h-4.6V88.943ZM75.057,75.131V88.943h-4.6V75.131Z" transform="translate(0 0)" fill="#fff" fill-rule="evenodd"/>
      <path id="Path_3489" data-name="Path 3489" d="M17.06,30.247c1.034,6.773,7.793,12,15.976,12s14.943-5.229,15.976-12c-1.5-.312-3-.584-4.469-.814q0,.078,0,.156c0,4.443-5.138,8.046-11.481,8.057h-.057c-6.343-.011-11.481-3.614-11.481-8.057q0-.078,0-.156C20.058,29.663,18.561,29.934,17.06,30.247Z" transform="translate(14.398 30.581)" fill="#fff" fill-rule="evenodd"/>
    </g>
    <rect id="Rectangle_917" data-name="Rectangle 917" width="96" height="83" rx="3" transform="translate(4485 2378)" fill="none"/>
  </g>
</svg>
