<svg xmlns="http://www.w3.org/2000/svg" width="96" height="83" viewBox="0 0 96 83">
  <g id="Group_4508" data-name="Group 4508" transform="translate(-4450 -2198)">
    <rect id="Rectangle_915" data-name="Rectangle 915" width="96" height="83" transform="translate(4450 2198)" fill="none"/>
    <path id="telescope_1_" data-name="telescope (1)" d="M79.571.226A3.4,3.4,0,0,0,77.2,1.21a2.137,2.137,0,0,0-.556,2.1l.672,2.4L49.991,10.655c-1.678.3-2.735,1.642-2.36,2.993l.685,2.452L20.977,21.043c-1.676.306-2.727,1.648-2.347,3l.685,2.457L7.161,28.689A3.06,3.06,0,0,0,4,26.7a3.4,3.4,0,0,0-2.362.987,2.136,2.136,0,0,0-.552,2.1l.523,1.89a2.107,2.107,0,0,0,.3,1.1l.535,1.905a3.191,3.191,0,0,0,3.72,1.9c1.68-.3,2.738-1.643,2.363-3l12.147-2.206.685,2.442a3.188,3.188,0,0,0,3.717,1.9l27.333-4.949.685,2.452a3.193,3.193,0,0,0,3.723,1.89l27.333-4.949.672,2.407a3.189,3.189,0,0,0,3.717,1.9c1.678-.3,2.735-1.642,2.36-2.993L89.589,26.8q-.021-.088-.05-.175L84.079,7.06,82.728,2.212A3.06,3.06,0,0,0,79.565.226ZM44,36.631a2.863,2.863,0,0,0-2.864,2.311L28.809,76.134c-.444,1.34.546,2.716,2.21,3.073a3.252,3.252,0,0,0,3.817-1.78l9.42-28.478L53.7,77.428a3.25,3.25,0,0,0,3.813,1.777c1.663-.357,2.651-1.732,2.207-3.071L47.388,38.912a2.7,2.7,0,0,0-2.148-2.156q-.135-.033-.274-.055l-.025-.01q-.154-.026-.311-.04-.136-.015-.274-.02h-.037q-.156-.006-.311,0Z" transform="translate(4452 2199.775)" fill="#fff"/>
  </g>
</svg>
