<svg xmlns="http://www.w3.org/2000/svg" width="93.359" height="76.859" viewBox="0 0 93.359 76.859">
  <path id="Icon_metro-weather5" data-name="Icon metro-weather5" d="M75.508,11.535a24.506,24.506,0,0,0-2.88.169C67.181,5.593,58.584,1.928,49.25,1.928S31.324,5.593,25.873,11.7a24.506,24.506,0,0,0-2.88-.169c-11.26,0-20.422,7.543-20.422,16.813s9.163,16.813,20.422,16.813a24.093,24.093,0,0,0,7.241-1.1,32.719,32.719,0,0,0,19.017,5.9,32.7,32.7,0,0,0,19.017-5.9,24.093,24.093,0,0,0,7.241,1.1c11.26,0,20.422-7.543,20.422-16.813S86.768,11.535,75.508,11.535ZM20.076,49.965c-3.225,0-5.835,2.148-5.835,4.8s2.61,4.8,5.835,4.8,5.835-2.148,5.835-4.8S23.3,49.965,20.076,49.965Zm29.175,4.8c-3.225,0-5.835,2.148-5.835,4.8s2.61,4.8,5.835,4.8,5.835-2.148,5.835-4.8S52.476,54.769,49.25,54.769Zm29.175-4.8c-3.225,0-5.835,2.148-5.835,4.8s2.61,4.8,5.835,4.8,5.835-2.148,5.835-4.8S81.651,49.965,78.425,49.965ZM66.755,69.18c-3.225,0-5.835,2.148-5.835,4.8s2.61,4.8,5.835,4.8,5.835-2.148,5.835-4.8S69.981,69.18,66.755,69.18Zm-35.01,0c-3.225,0-5.835,2.148-5.835,4.8s2.61,4.8,5.835,4.8,5.835-2.148,5.835-4.8S34.971,69.18,31.746,69.18Z" transform="translate(-2.571 -1.928)" fill="#fff"/>
</svg>
